<svg xmlns="http://www.w3.org/2000/svg" version="1.1" xmlns:xlink="http://www.w3.org/1999/xlink" xmlns:svgjs="http://svgjs.com/svgjs" width="1200" height="1200" preserveAspectRatio="none" viewBox="0 0 1200 1200"><g mask="url(&quot;#SvgjsMask1379&quot;)" fill="none"><rect width="1200" height="1200" x="0" y="0" fill="url(#SvgjsLinearGradient1380)"></rect><use xlink:href="#SvgjsSymbol1387" x="0" y="0"></use><use xlink:href="#SvgjsSymbol1387" x="0" y="720"></use><use xlink:href="#SvgjsSymbol1387" x="720" y="0"></use><use xlink:href="#SvgjsSymbol1387" x="720" y="720"></use></g><defs><mask id="SvgjsMask1379"><rect width="1200" height="1200" fill="#ffffff"></rect></mask><linearGradient x1="0%" y1="0%" x2="100%" y2="100%" gradientUnits="userSpaceOnUse" id="SvgjsLinearGradient1380"><stop stop-color="#0e2a47" offset="0"></stop><stop stop-color="rgba(29, 67, 80, 1)" offset="1"></stop></linearGradient><path d="M-1 0 a1 1 0 1 0 2 0 a1 1 0 1 0 -2 0z" id="SvgjsPath1384"></path><path d="M-3 0 a3 3 0 1 0 6 0 a3 3 0 1 0 -6 0z" id="SvgjsPath1386"></path><path d="M-5 0 a5 5 0 1 0 10 0 a5 5 0 1 0 -10 0z" id="SvgjsPath1381"></path><path d="M2 -2 L-2 2z" id="SvgjsPath1382"></path><path d="M6 -6 L-6 6z" id="SvgjsPath1383"></path><path d="M30 -30 L-30 30z" id="SvgjsPath1385"></path></defs><symbol id="SvgjsSymbol1387"><use xlink:href="#SvgjsPath1381" x="30" y="30" stroke="rgba(164, 57, 49, 1)"></use><use xlink:href="#SvgjsPath1382" x="30" y="90" stroke="rgba(29, 67, 80, 1)"></use><use xlink:href="#SvgjsPath1383" x="30" y="150" stroke="rgba(164, 57, 49, 1)"></use><use xlink:href="#SvgjsPath1381" x="30" y="210" stroke="rgba(29, 67, 80, 1)"></use><use xlink:href="#SvgjsPath1381" x="30" y="270" stroke="rgba(29, 67, 80, 1)"></use><use xlink:href="#SvgjsPath1384" x="30" y="330" stroke="rgba(29, 67, 80, 1)"></use><use xlink:href="#SvgjsPath1383" x="30" y="390" stroke="rgba(164, 57, 49, 1)"></use><use xlink:href="#SvgjsPath1381" x="30" y="450" stroke="rgba(29, 67, 80, 1)"></use><use xlink:href="#SvgjsPath1383" x="30" y="510" stroke="rgba(164, 57, 49, 1)"></use><use xlink:href="#SvgjsPath1381" x="30" y="570" stroke="rgba(29, 67, 80, 1)"></use><use xlink:href="#SvgjsPath1382" x="30" y="630" stroke="rgba(29, 67, 80, 1)"></use><use xlink:href="#SvgjsPath1384" x="30" y="690" stroke="rgba(164, 57, 49, 1)"></use><use xlink:href="#SvgjsPath1381" x="90" y="30" stroke="rgba(164, 57, 49, 1)"></use><use xlink:href="#SvgjsPath1385" x="90" y="90" stroke="rgba(164, 57, 49, 1)" stroke-width="3"></use><use xlink:href="#SvgjsPath1381" x="90" y="150" stroke="rgba(164, 57, 49, 1)"></use><use xlink:href="#SvgjsPath1384" x="90" y="210" stroke="rgba(164, 57, 49, 1)"></use><use xlink:href="#SvgjsPath1386" x="90" y="270" stroke="rgba(164, 57, 49, 1)"></use><use xlink:href="#SvgjsPath1381" x="90" y="330" stroke="rgba(29, 67, 80, 1)"></use><use xlink:href="#SvgjsPath1383" x="90" y="390" stroke="rgba(164, 57, 49, 1)"></use><use xlink:href="#SvgjsPath1383" x="90" y="450" stroke="rgba(164, 57, 49, 1)"></use><use xlink:href="#SvgjsPath1383" x="90" y="510" stroke="rgba(29, 67, 80, 1)"></use><use xlink:href="#SvgjsPath1384" x="90" y="570" stroke="rgba(29, 67, 80, 1)"></use><use xlink:href="#SvgjsPath1386" x="90" y="630" stroke="rgba(29, 67, 80, 1)"></use><use xlink:href="#SvgjsPath1383" x="90" y="690" stroke="rgba(164, 57, 49, 1)"></use><use xlink:href="#SvgjsPath1384" x="150" y="30" stroke="rgba(164, 57, 49, 1)"></use><use xlink:href="#SvgjsPath1384" x="150" y="90" stroke="rgba(164, 57, 49, 1)"></use><use xlink:href="#SvgjsPath1381" x="150" y="150" stroke="rgba(164, 57, 49, 1)"></use><use xlink:href="#SvgjsPath1382" x="150" y="210" stroke="rgba(164, 57, 49, 1)"></use><use xlink:href="#SvgjsPath1383" x="150" y="270" stroke="rgba(29, 67, 80, 1)"></use><use xlink:href="#SvgjsPath1383" x="150" y="330" stroke="rgba(29, 67, 80, 1)"></use><use xlink:href="#SvgjsPath1382" x="150" y="390" stroke="rgba(29, 67, 80, 1)"></use><use xlink:href="#SvgjsPath1381" x="150" y="450" stroke="rgba(164, 57, 49, 1)"></use><use xlink:href="#SvgjsPath1381" x="150" y="510" stroke="rgba(29, 67, 80, 1)"></use><use xlink:href="#SvgjsPath1381" x="150" y="570" stroke="rgba(29, 67, 80, 1)"></use><use xlink:href="#SvgjsPath1385" x="150" y="630" stroke="rgba(29, 67, 80, 1)" stroke-width="3"></use><use xlink:href="#SvgjsPath1381" x="150" y="690" stroke="rgba(164, 57, 49, 1)"></use><use xlink:href="#SvgjsPath1383" x="210" y="30" stroke="rgba(29, 67, 80, 1)"></use><use xlink:href="#SvgjsPath1381" x="210" y="90" stroke="rgba(164, 57, 49, 1)"></use><use xlink:href="#SvgjsPath1381" x="210" y="150" stroke="rgba(164, 57, 49, 1)"></use><use xlink:href="#SvgjsPath1383" x="210" y="210" stroke="rgba(164, 57, 49, 1)"></use><use xlink:href="#SvgjsPath1381" x="210" y="270" stroke="rgba(164, 57, 49, 1)"></use><use xlink:href="#SvgjsPath1385" x="210" y="330" stroke="rgba(164, 57, 49, 1)" stroke-width="3"></use><use xlink:href="#SvgjsPath1381" x="210" y="390" stroke="rgba(164, 57, 49, 1)"></use><use xlink:href="#SvgjsPath1382" x="210" y="450" stroke="rgba(29, 67, 80, 1)"></use><use xlink:href="#SvgjsPath1382" x="210" y="510" stroke="rgba(29, 67, 80, 1)"></use><use xlink:href="#SvgjsPath1381" x="210" y="570" stroke="rgba(29, 67, 80, 1)"></use><use xlink:href="#SvgjsPath1386" x="210" y="630" stroke="rgba(164, 57, 49, 1)"></use><use xlink:href="#SvgjsPath1384" x="210" y="690" stroke="rgba(29, 67, 80, 1)"></use><use xlink:href="#SvgjsPath1383" x="270" y="30" stroke="rgba(29, 67, 80, 1)"></use><use xlink:href="#SvgjsPath1381" x="270" y="90" stroke="rgba(29, 67, 80, 1)"></use><use xlink:href="#SvgjsPath1384" x="270" y="150" stroke="rgba(29, 67, 80, 1)"></use><use xlink:href="#SvgjsPath1386" x="270" y="210" stroke="rgba(164, 57, 49, 1)"></use><use xlink:href="#SvgjsPath1382" x="270" y="270" stroke="rgba(164, 57, 49, 1)"></use><use xlink:href="#SvgjsPath1381" x="270" y="330" stroke="rgba(29, 67, 80, 1)"></use><use xlink:href="#SvgjsPath1383" x="270" y="390" stroke="rgba(29, 67, 80, 1)"></use><use xlink:href="#SvgjsPath1382" x="270" y="450" stroke="rgba(164, 57, 49, 1)"></use><use xlink:href="#SvgjsPath1381" x="270" y="510" stroke="rgba(29, 67, 80, 1)"></use><use xlink:href="#SvgjsPath1382" x="270" y="570" stroke="rgba(29, 67, 80, 1)"></use><use xlink:href="#SvgjsPath1381" x="270" y="630" stroke="rgba(29, 67, 80, 1)"></use><use xlink:href="#SvgjsPath1384" x="270" y="690" stroke="rgba(164, 57, 49, 1)"></use><use xlink:href="#SvgjsPath1381" x="330" y="30" stroke="rgba(164, 57, 49, 1)"></use><use xlink:href="#SvgjsPath1381" x="330" y="90" stroke="rgba(164, 57, 49, 1)"></use><use xlink:href="#SvgjsPath1382" x="330" y="150" stroke="rgba(164, 57, 49, 1)"></use><use xlink:href="#SvgjsPath1381" x="330" y="210" stroke="rgba(29, 67, 80, 1)"></use><use xlink:href="#SvgjsPath1381" x="330" y="270" stroke="rgba(29, 67, 80, 1)"></use><use xlink:href="#SvgjsPath1382" x="330" y="330" stroke="rgba(29, 67, 80, 1)"></use><use xlink:href="#SvgjsPath1381" x="330" y="390" stroke="rgba(164, 57, 49, 1)"></use><use xlink:href="#SvgjsPath1382" x="330" y="450" stroke="rgba(29, 67, 80, 1)"></use><use xlink:href="#SvgjsPath1381" x="330" y="510" stroke="rgba(164, 57, 49, 1)"></use><use xlink:href="#SvgjsPath1383" x="330" y="570" stroke="rgba(29, 67, 80, 1)"></use><use xlink:href="#SvgjsPath1386" x="330" y="630" stroke="rgba(29, 67, 80, 1)"></use><use xlink:href="#SvgjsPath1385" x="330" y="690" stroke="rgba(29, 67, 80, 1)" stroke-width="3"></use><use xlink:href="#SvgjsPath1381" x="390" y="30" stroke="rgba(164, 57, 49, 1)"></use><use xlink:href="#SvgjsPath1384" x="390" y="90" stroke="rgba(164, 57, 49, 1)"></use><use xlink:href="#SvgjsPath1381" x="390" y="150" stroke="rgba(164, 57, 49, 1)"></use><use xlink:href="#SvgjsPath1381" x="390" y="210" stroke="rgba(29, 67, 80, 1)"></use><use xlink:href="#SvgjsPath1381" x="390" y="270" stroke="rgba(164, 57, 49, 1)"></use><use xlink:href="#SvgjsPath1383" x="390" y="330" stroke="rgba(164, 57, 49, 1)"></use><use xlink:href="#SvgjsPath1382" x="390" y="390" stroke="rgba(164, 57, 49, 1)"></use><use xlink:href="#SvgjsPath1381" x="390" y="450" stroke="rgba(164, 57, 49, 1)"></use><use xlink:href="#SvgjsPath1381" x="390" y="510" stroke="rgba(29, 67, 80, 1)"></use><use xlink:href="#SvgjsPath1382" x="390" y="570" stroke="rgba(29, 67, 80, 1)"></use><use xlink:href="#SvgjsPath1385" x="390" y="630" stroke="rgba(164, 57, 49, 1)" stroke-width="3"></use><use xlink:href="#SvgjsPath1381" x="390" y="690" stroke="rgba(164, 57, 49, 1)"></use><use xlink:href="#SvgjsPath1386" x="450" y="30" stroke="rgba(164, 57, 49, 1)"></use><use xlink:href="#SvgjsPath1383" x="450" y="90" stroke="rgba(29, 67, 80, 1)"></use><use xlink:href="#SvgjsPath1385" x="450" y="150" stroke="rgba(29, 67, 80, 1)" stroke-width="3"></use><use xlink:href="#SvgjsPath1386" x="450" y="210" stroke="rgba(164, 57, 49, 1)"></use><use xlink:href="#SvgjsPath1383" x="450" y="270" stroke="rgba(29, 67, 80, 1)"></use><use xlink:href="#SvgjsPath1383" x="450" y="330" stroke="rgba(29, 67, 80, 1)"></use><use xlink:href="#SvgjsPath1381" x="450" y="390" stroke="rgba(164, 57, 49, 1)"></use><use xlink:href="#SvgjsPath1381" x="450" y="450" stroke="rgba(29, 67, 80, 1)"></use><use xlink:href="#SvgjsPath1383" x="450" y="510" stroke="rgba(29, 67, 80, 1)"></use><use xlink:href="#SvgjsPath1381" x="450" y="570" stroke="rgba(29, 67, 80, 1)"></use><use xlink:href="#SvgjsPath1381" x="450" y="630" stroke="rgba(164, 57, 49, 1)"></use><use xlink:href="#SvgjsPath1386" x="450" y="690" stroke="rgba(164, 57, 49, 1)"></use><use xlink:href="#SvgjsPath1385" x="510" y="30" stroke="rgba(164, 57, 49, 1)" stroke-width="3"></use><use xlink:href="#SvgjsPath1383" x="510" y="90" stroke="rgba(164, 57, 49, 1)"></use><use xlink:href="#SvgjsPath1381" x="510" y="150" stroke="rgba(29, 67, 80, 1)"></use><use xlink:href="#SvgjsPath1381" x="510" y="210" stroke="rgba(164, 57, 49, 1)"></use><use xlink:href="#SvgjsPath1383" x="510" y="270" stroke="rgba(29, 67, 80, 1)"></use><use xlink:href="#SvgjsPath1385" x="510" y="330" stroke="rgba(164, 57, 49, 1)" stroke-width="3"></use><use xlink:href="#SvgjsPath1381" x="510" y="390" stroke="rgba(164, 57, 49, 1)"></use><use xlink:href="#SvgjsPath1383" x="510" y="450" stroke="rgba(164, 57, 49, 1)"></use><use xlink:href="#SvgjsPath1383" x="510" y="510" stroke="rgba(164, 57, 49, 1)"></use><use xlink:href="#SvgjsPath1383" x="510" y="570" stroke="rgba(29, 67, 80, 1)"></use><use xlink:href="#SvgjsPath1382" x="510" y="630" stroke="rgba(164, 57, 49, 1)"></use><use xlink:href="#SvgjsPath1383" x="510" y="690" stroke="rgba(164, 57, 49, 1)"></use><use xlink:href="#SvgjsPath1386" x="570" y="30" stroke="rgba(164, 57, 49, 1)"></use><use xlink:href="#SvgjsPath1385" x="570" y="90" stroke="rgba(29, 67, 80, 1)" stroke-width="3"></use><use xlink:href="#SvgjsPath1386" x="570" y="150" stroke="rgba(164, 57, 49, 1)"></use><use xlink:href="#SvgjsPath1384" x="570" y="210" stroke="rgba(164, 57, 49, 1)"></use><use xlink:href="#SvgjsPath1386" x="570" y="270" stroke="rgba(164, 57, 49, 1)"></use><use xlink:href="#SvgjsPath1385" x="570" y="330" stroke="rgba(164, 57, 49, 1)" stroke-width="3"></use><use xlink:href="#SvgjsPath1384" x="570" y="390" stroke="rgba(29, 67, 80, 1)"></use><use xlink:href="#SvgjsPath1383" x="570" y="450" stroke="rgba(164, 57, 49, 1)"></use><use xlink:href="#SvgjsPath1382" x="570" y="510" stroke="rgba(164, 57, 49, 1)"></use><use xlink:href="#SvgjsPath1381" x="570" y="570" stroke="rgba(164, 57, 49, 1)"></use><use xlink:href="#SvgjsPath1381" x="570" y="630" stroke="rgba(29, 67, 80, 1)"></use><use xlink:href="#SvgjsPath1382" x="570" y="690" stroke="rgba(29, 67, 80, 1)"></use><use xlink:href="#SvgjsPath1381" x="630" y="30" stroke="rgba(164, 57, 49, 1)"></use><use xlink:href="#SvgjsPath1381" x="630" y="90" stroke="rgba(164, 57, 49, 1)"></use><use xlink:href="#SvgjsPath1381" x="630" y="150" stroke="rgba(29, 67, 80, 1)"></use><use xlink:href="#SvgjsPath1383" x="630" y="210" stroke="rgba(164, 57, 49, 1)"></use><use xlink:href="#SvgjsPath1383" x="630" y="270" stroke="rgba(29, 67, 80, 1)"></use><use xlink:href="#SvgjsPath1385" x="630" y="330" stroke="rgba(29, 67, 80, 1)" stroke-width="3"></use><use xlink:href="#SvgjsPath1381" x="630" y="390" stroke="rgba(29, 67, 80, 1)"></use><use xlink:href="#SvgjsPath1383" x="630" y="450" stroke="rgba(29, 67, 80, 1)"></use><use xlink:href="#SvgjsPath1383" x="630" y="510" stroke="rgba(164, 57, 49, 1)"></use><use xlink:href="#SvgjsPath1384" x="630" y="570" stroke="rgba(164, 57, 49, 1)"></use><use xlink:href="#SvgjsPath1384" x="630" y="630" stroke="rgba(164, 57, 49, 1)"></use><use xlink:href="#SvgjsPath1382" x="630" y="690" stroke="rgba(29, 67, 80, 1)"></use><use xlink:href="#SvgjsPath1384" x="690" y="30" stroke="rgba(29, 67, 80, 1)"></use><use xlink:href="#SvgjsPath1381" x="690" y="90" stroke="rgba(29, 67, 80, 1)"></use><use xlink:href="#SvgjsPath1381" x="690" y="150" stroke="rgba(164, 57, 49, 1)"></use><use xlink:href="#SvgjsPath1384" x="690" y="210" stroke="rgba(164, 57, 49, 1)"></use><use xlink:href="#SvgjsPath1383" x="690" y="270" stroke="rgba(29, 67, 80, 1)"></use><use xlink:href="#SvgjsPath1386" x="690" y="330" stroke="rgba(29, 67, 80, 1)"></use><use xlink:href="#SvgjsPath1381" x="690" y="390" stroke="rgba(164, 57, 49, 1)"></use><use xlink:href="#SvgjsPath1381" x="690" y="450" stroke="rgba(164, 57, 49, 1)"></use><use xlink:href="#SvgjsPath1383" x="690" y="510" stroke="rgba(164, 57, 49, 1)"></use><use xlink:href="#SvgjsPath1382" x="690" y="570" stroke="rgba(164, 57, 49, 1)"></use><use xlink:href="#SvgjsPath1381" x="690" y="630" stroke="rgba(164, 57, 49, 1)"></use><use xlink:href="#SvgjsPath1381" x="690" y="690" stroke="rgba(164, 57, 49, 1)"></use></symbol></svg>